<svg width="146" height="81" viewBox="0 0 146 81" fill="none" xmlns="http://www.w3.org/2000/svg">
<path fill-rule="evenodd" clip-rule="evenodd" d="M81.2852 35.1918C82.4715 54.812 94.2597 70.2199 108.627 70.2199C122.994 70.2199 134.782 54.812 135.968 35.1918H133.767C133.209 44.0387 130.407 51.9147 126.244 57.725C121.572 64.2446 115.313 68.0229 108.627 68.0229C101.94 68.0229 95.6816 64.2446 91.0096 57.725C86.8458 51.9147 84.044 44.0387 83.4863 35.1918H81.2852Z" fill="#110601"/>
<path fill-rule="evenodd" clip-rule="evenodd" d="M81.2856 35.1938C82.4719 53.3049 94.26 67.5276 108.627 67.5276C122.994 67.5276 134.782 53.3049 135.969 35.1938H133.768C132.593 52.5404 121.357 65.3306 108.627 65.3306C95.8971 65.3306 84.6614 52.5404 83.4857 35.1938H81.2856Z" fill="#110601"/>
<path fill-rule="evenodd" clip-rule="evenodd" d="M81.2853 35.1956C82.4711 38.9688 94.2595 41.9321 108.627 41.9321C122.994 41.9321 134.783 38.9688 135.969 35.1956H133.278C133.134 35.3103 132.955 35.4387 132.733 35.5796C131.611 36.2914 129.842 37.0142 127.46 37.6534C122.728 38.9233 116.069 39.7351 108.627 39.7351C101.185 39.7351 94.5254 38.9233 89.7936 37.6534C87.4116 37.0142 85.6424 36.2914 84.5206 35.5796C84.2985 35.4387 84.1195 35.3103 83.9754 35.1956H81.2853Z" fill="#110601"/>
<path fill-rule="evenodd" clip-rule="evenodd" d="M81.2856 68.8754C82.472 74.1577 94.2601 78.3059 108.627 78.3059C122.994 78.3059 134.782 74.1577 135.969 68.8754H133.655C133.452 69.3075 133.081 69.8076 132.451 70.3671C131.335 71.3583 129.596 72.3514 127.257 73.2299C122.596 74.9809 116.01 76.109 108.627 76.109C101.244 76.109 94.6577 74.9809 89.9969 73.2299C87.6585 72.3514 85.9186 71.3583 84.8027 70.3671C84.1728 69.8076 83.8024 69.3075 83.5991 68.8754H81.2856Z" fill="#110601"/>
<path fill-rule="evenodd" clip-rule="evenodd" d="M77.1845 68.8754C78.549 75.6669 92.1052 81.0003 108.627 81.0003C125.149 81.0003 138.705 75.6669 140.07 68.8754H137.801C137.551 69.6467 137.032 70.4746 136.155 71.3462C134.823 72.6686 132.785 73.9605 130.089 75.0926C124.708 77.3529 117.121 78.8033 108.627 78.8033C100.133 78.8033 92.5461 77.3529 87.1647 75.0926C84.4696 73.9605 82.431 72.6686 81.0994 71.3462C80.2217 70.4746 79.7029 69.6467 79.453 68.8754H77.1845Z" fill="#110601"/>
<path fill-rule="evenodd" clip-rule="evenodd" d="M130.501 54.0505C136.367 55.1522 142.012 52.1996 143.386 47.1472C144.759 42.0948 141.369 36.7564 135.729 34.82L135.152 36.9453C139.866 38.6256 142.25 42.9498 141.261 46.5863C140.273 50.2229 136.013 52.7928 131.079 51.9252L130.501 54.0505Z" fill="#110601"/>
<path fill-rule="evenodd" clip-rule="evenodd" d="M130.383 52.8049C130.385 52.8056 130.388 52.8063 130.39 52.8069C134.567 53.9099 138.872 51.4249 140.006 47.2565C141.139 43.0881 138.672 38.8148 134.495 37.7119C134.492 37.7112 134.49 37.7105 134.487 37.7099L133.911 39.8299C133.913 39.8305 133.916 39.8312 133.918 39.8319C136.922 40.6251 138.696 43.6983 137.882 46.6956C137.067 49.6929 133.971 51.4802 130.967 50.6869C130.964 50.6863 130.962 50.6856 130.959 50.6849L130.383 52.8049Z" fill="#110601"/>
<path fill-rule="evenodd" clip-rule="evenodd" d="M135.969 35.1957C134.783 31.4225 122.994 28.4594 108.627 28.4594C94.2601 28.4594 82.4719 31.4225 81.2857 35.1957H83.976C84.1201 35.081 84.2989 34.9527 84.5209 34.8119C85.6427 34.1001 87.4119 33.3773 89.7939 32.7381C94.5257 31.4683 101.185 30.6564 108.627 30.6564C116.069 30.6564 122.729 31.4683 127.461 32.7381C129.843 33.3773 131.612 34.1001 132.734 34.8119C132.956 34.9527 133.134 35.081 133.278 35.1957H135.969Z" fill="#110601"/>
<path d="M135.463 56.5616C135.759 56.5633 136.051 56.5984 136.335 56.669C136.616 56.7392 136.875 56.8409 137.111 56.9704C136.854 57.5146 136.198 58.2054 135.438 58.7951C134.644 59.4109 133.735 59.934 133.147 60.17L133.14 60.1728L133.133 60.1756C132.593 60.4068 132.211 60.7706 131.991 61.1719C131.849 61.4304 131.766 61.7011 131.718 61.9762C131.285 61.695 130.829 61.4698 130.365 61.3064C130.4 60.7986 130.535 60.2661 130.779 59.7329C131.291 58.6146 132.185 57.7143 133.198 57.1653C133.926 56.7707 134.707 56.5572 135.463 56.5616ZM138.006 57.7349C138.176 57.9549 138.316 58.2003 138.422 58.4667C138.776 59.3563 138.747 60.4721 138.235 61.5905C137.925 62.2673 137.475 62.864 136.943 63.3516C136.42 63.4822 135.902 63.6839 135.415 63.9576C135.039 64.1692 134.704 64.4113 134.414 64.6746C134.319 64.6938 134.225 64.7102 134.13 64.7231C133.95 64.3309 133.715 63.9408 133.427 63.5624C133.252 63.3332 133.061 63.1132 132.854 62.9035C132.852 62.7595 132.853 62.62 132.861 62.4867C132.884 62.1265 132.953 61.8183 133.08 61.5878C133.207 61.3572 133.372 61.1961 133.681 61.0637L133.667 61.0694C134.428 60.7636 135.379 60.2048 136.254 59.5258C136.95 58.9861 137.595 58.3816 138.006 57.7349ZM128.696 61.4992C129.146 61.5022 129.621 61.5892 130.102 61.7556C131.129 62.1107 132.159 62.8303 132.921 63.8301C133.311 64.3416 133.592 64.8748 133.766 65.3977C133.082 66.354 132.914 67.4523 133.407 68.3748C133.327 68.4696 133.238 68.5588 133.141 68.6414C132.421 68.1235 131.59 67.6945 131 67.2539C130.678 67.0132 130.434 66.7748 130.298 66.5478C130.163 66.3207 130.116 66.1124 130.186 65.8288L130.191 65.8123L130.193 65.7957C130.461 64.1789 129.991 63.2288 129.306 62.6476C128.755 62.1802 128.207 61.9341 127.828 61.6091C128.102 61.5334 128.393 61.4971 128.696 61.4992ZM126.808 62.1635C127.361 62.7367 128.044 63.0015 128.451 63.3473C128.92 63.7447 129.243 64.2231 129.008 65.6522C128.894 66.1381 128.994 66.6048 129.226 66.9929C129.462 67.3881 129.815 67.7094 130.201 67.9975C130.787 68.4352 131.463 68.81 132.029 69.1757C131.387 69.3145 130.657 69.2473 129.914 68.9901C128.887 68.6351 127.857 67.9153 127.095 66.9156C126.332 65.9158 125.988 64.8326 126.039 63.9074C126.077 63.1999 126.339 62.5937 126.808 62.1635L126.808 62.1635ZM129.008 65.6522C129.01 65.6435 129.011 65.6348 129.013 65.626L129.006 65.6591C129.007 65.6568 129.007 65.6545 129.008 65.6522H129.008ZM138.333 63.6713C138.945 63.6667 139.521 63.7785 140.006 63.9987C140.003 63.9988 140 63.999 139.996 63.9991C139.709 64.0076 139.349 63.9793 138.933 64.0266C138.518 64.0738 138.032 64.2309 137.664 64.5783C137.295 64.9256 137.043 65.4181 136.867 66.1253L136.863 66.1418L136.86 66.1585C136.778 66.6519 136.401 66.9374 135.747 67.2047C135.19 67.4327 134.473 67.5956 133.793 67.7614C133.489 66.6243 134.211 65.2374 135.75 64.3714C136.58 63.9045 137.49 63.6776 138.333 63.6713H138.333ZM141.031 64.8208C141.872 66.0281 141.197 67.7996 139.364 68.8315C137.559 69.8469 135.377 69.7267 134.327 68.6734C134.941 68.5277 135.636 68.3623 136.275 68.1012C137.099 67.7645 137.884 67.1987 138.042 66.32C138.193 65.7182 138.394 65.397 138.562 65.2395C138.729 65.0812 138.86 65.0427 139.096 65.0159C139.331 64.9891 139.655 65.0083 140.038 64.997C140.337 64.9882 140.688 64.9525 141.031 64.8208V64.8208ZM138.042 66.32C138.041 66.3228 138.041 66.3253 138.04 66.3281L138.047 66.2949C138.045 66.3034 138.044 66.3116 138.042 66.32L138.042 66.32Z" fill="#6C390A"/>
<path d="M80.6608 56.5616C80.4072 56.5633 80.1568 56.5984 79.9137 56.669C79.6726 56.7392 79.4504 56.8409 79.2488 56.9704C79.4691 57.5146 80.0314 58.2054 80.6827 58.7951C81.3628 59.4109 82.1426 59.934 82.6462 60.17L82.6521 60.1728L82.6579 60.1756C83.1206 60.4068 83.4483 60.7706 83.6374 61.1719C83.7592 61.4304 83.8301 61.7011 83.8715 61.9762C84.2423 61.695 84.6332 61.4698 85.0306 61.3064C85.0003 60.7986 84.8854 60.2661 84.6762 59.7329C84.2373 58.6146 83.4708 57.7143 82.6026 57.1653C81.9787 56.7707 81.3091 56.5572 80.6608 56.5616ZM78.4814 57.7349C78.3355 57.9549 78.2159 58.2003 78.1251 58.4667C77.8216 59.3563 77.8462 60.4721 78.2851 61.5905C78.5507 62.2673 78.9365 62.864 79.3921 63.3516C79.841 63.4822 80.2849 63.6839 80.7019 63.9576C81.0241 64.1692 81.3112 64.4113 81.5601 64.6746C81.6413 64.6938 81.7225 64.7102 81.8037 64.7231C81.9583 64.3309 82.1589 63.9408 82.4062 63.5624C82.5558 63.3332 82.7198 63.1132 82.8971 62.9035C82.8991 62.7595 82.898 62.62 82.8909 62.4867C82.8718 62.1265 82.8125 61.8183 82.7038 61.5878C82.5952 61.3572 82.4536 61.1961 82.1886 61.0637L82.2003 61.0694C81.5478 60.7636 80.7329 60.2048 79.9829 59.5258C79.3867 58.9861 78.8337 58.3816 78.4814 57.7349ZM86.461 61.4992C86.0758 61.5022 85.6682 61.5892 85.2558 61.7556C84.3762 62.1107 83.4929 62.8303 82.8396 63.8301C82.5053 64.3416 82.2652 64.8748 82.1159 65.3977C82.702 66.354 82.846 67.4523 82.4237 68.3748C82.492 68.4696 82.5682 68.5588 82.6515 68.6414C83.2689 68.1235 83.9804 67.6945 84.4861 67.2539C84.7625 67.0132 84.9717 66.7748 85.088 66.5478C85.2043 66.3207 85.2443 66.1124 85.1839 65.8288L85.1803 65.8123L85.178 65.7957C84.9483 64.1789 85.3513 63.2288 85.9386 62.6476C86.4108 62.1802 86.8809 61.9341 87.2052 61.6091C86.9709 61.5334 86.7211 61.4971 86.461 61.4992ZM88.0796 62.1635C87.6053 62.7367 87.0205 63.0015 86.671 63.3473C86.2695 63.7447 85.9924 64.2231 86.1943 65.6522C86.2915 66.1381 86.206 66.6048 86.0072 66.9929C85.8048 67.3881 85.502 67.7094 85.1713 67.9975C84.6689 68.4352 84.0894 68.81 83.6046 69.1757C84.1544 69.3146 84.7804 69.2473 85.4177 68.9901C86.2974 68.6351 87.1807 67.9153 87.834 66.9156C88.4873 65.9158 88.7821 64.8326 88.739 63.9074C88.706 63.1999 88.4813 62.5937 88.0797 62.1635L88.0796 62.1635ZM86.1943 65.6522C86.1926 65.6435 86.1912 65.6348 86.1893 65.626L86.1952 65.6591C86.195 65.6568 86.1947 65.6545 86.1943 65.6522H86.1943ZM78.2012 63.6713C77.6768 63.6667 77.1829 63.7785 76.7671 63.9987C76.77 63.9988 76.7725 63.999 76.7753 63.9991C77.0215 64.0076 77.3305 63.9793 77.6863 64.0266C78.0421 64.0738 78.4589 64.2309 78.7746 64.5783C79.0904 64.9256 79.3069 65.4181 79.4577 66.1253L79.4613 66.1418L79.4636 66.1585C79.5336 66.6519 79.8568 66.9374 80.4173 67.2047C80.8955 67.4327 81.5094 67.5956 82.0921 67.7614C82.3531 66.6243 81.7339 65.2374 80.4146 64.3714C79.7033 63.9045 78.9236 63.6776 78.2012 63.6713H78.2012ZM75.8885 64.8208C75.1677 66.0281 75.7458 67.7996 77.3177 68.8315C78.8645 69.8469 80.7345 69.7267 81.6346 68.6734C81.1087 68.5277 80.5125 68.3623 79.9651 68.1012C79.2591 67.7645 78.5862 67.1987 78.4504 66.32C78.3211 65.7182 78.1484 65.397 78.0052 65.2395C77.8614 65.0812 77.7493 65.0427 77.5474 65.0159C77.3454 64.9891 77.0679 65.0083 76.7392 64.997C76.4831 64.9882 76.1825 64.9525 75.8885 64.8208V64.8208ZM78.4505 66.32C78.4511 66.3228 78.4517 66.3253 78.4523 66.3281L78.4464 66.2949C78.4476 66.3034 78.4492 66.3116 78.4505 66.32L78.4505 66.32Z" fill="#6C390A"/>
<path d="M133.801 35.0504C133.801 38.0838 122.49 40.5428 108.536 40.5428C94.5827 40.5428 83.2711 38.0838 83.2711 35.0504C83.2711 32.017 94.5827 29.558 108.536 29.558C122.49 29.558 133.801 32.017 133.801 35.0504Z" fill="#6B390A"/>
<path fill-rule="evenodd" clip-rule="evenodd" d="M90.7862 22.9997C89.8436 22.104 89.1882 20.9494 88.9031 19.682C88.6179 18.4147 88.7158 17.0913 89.1842 15.8794C89.6527 14.6675 90.4707 13.6215 91.5349 12.8736C92.599 12.1257 93.8615 11.7095 95.1626 11.6776C96.4638 11.6458 97.7452 11.9997 98.8448 12.6947C99.9444 13.3897 100.813 14.3944 101.34 15.582C101.868 16.7695 102.03 18.0864 101.808 19.3662C101.585 20.6461 100.987 21.8313 100.09 22.772L95.5521 27.5284L90.7862 22.9997ZM99.0311 21.7657L95.5016 25.4654L91.7945 21.943C91.0614 21.2464 90.5517 20.3484 90.33 19.3627C90.1082 18.377 90.1843 17.3477 90.5486 16.4052C90.913 15.4626 91.5492 14.649 92.3768 14.0673C93.2045 13.4856 94.1863 13.1619 95.1983 13.1371C96.2103 13.1123 97.207 13.3875 98.0622 13.928C98.9174 14.4685 99.5929 15.2499 100.003 16.1735C100.413 17.0971 100.54 18.1213 100.367 19.1167C100.194 20.1121 99.7291 21.034 99.0311 21.7657Z" fill="#6B390A"/>
<g clip-path="url(#clip0_54_4523)">
<path fill-rule="evenodd" clip-rule="evenodd" d="M114.578 19.4691C113.871 18.795 113.379 17.926 113.165 16.9721C112.952 16.0181 113.025 15.0221 113.376 14.11C113.728 13.1978 114.341 12.4105 115.139 11.8476C115.937 11.2846 116.884 10.9714 117.86 10.9474C118.836 10.9234 119.797 11.1898 120.622 11.7129C121.446 12.236 122.098 12.9923 122.493 13.8861C122.889 14.7799 123.011 15.7711 122.844 16.7344C122.677 17.6976 122.229 18.5897 121.555 19.2978L118.152 22.8777L114.578 19.4691ZM120.761 18.5403L118.114 21.325L115.334 18.6738C114.784 18.1495 114.402 17.4736 114.236 16.7317C114.069 15.9898 114.126 15.2151 114.4 14.5057C114.673 13.7962 115.15 13.1839 115.771 12.746C116.391 12.3082 117.128 12.0646 117.887 12.0459C118.646 12.0272 119.393 12.2344 120.035 12.6412C120.676 13.048 121.183 13.6361 121.49 14.3313C121.798 15.0264 121.893 15.7974 121.763 16.5466C121.634 17.2958 121.285 17.9896 120.761 18.5403Z" fill="#6B390A"/>
</g>
<path fill-rule="evenodd" clip-rule="evenodd" d="M105.082 9.04038C104.375 8.3686 103.883 7.5027 103.67 6.55215C103.456 5.60161 103.529 4.60912 103.88 3.7002C104.232 2.79128 104.845 2.00675 105.643 1.44581C106.442 0.884871 107.388 0.572725 108.364 0.548844C109.34 0.524963 110.301 0.790419 111.126 1.31164C111.951 1.83287 112.602 2.58645 112.997 3.4771C113.393 4.36774 113.515 5.35544 113.348 6.31531C113.181 7.27517 112.733 8.16407 112.06 8.86962L108.656 12.4369L105.082 9.04038ZM111.266 8.1149L108.618 10.8897L105.838 8.24789C105.288 7.7254 104.906 7.05193 104.74 6.31263C104.573 5.57334 104.63 4.80142 104.904 4.0945C105.177 3.38758 105.654 2.77739 106.275 2.34111C106.896 1.90482 107.632 1.66203 108.391 1.64343C109.15 1.62483 109.897 1.83127 110.539 2.23662C111.18 2.64198 111.687 3.22806 111.995 3.92075C112.302 4.61343 112.397 5.38162 112.268 6.12817C112.138 6.87472 111.789 7.56611 111.266 8.1149Z" fill="#6B390A"/>
<path d="M32.1794 27.8053C32.8356 27.8991 33.2808 28.0982 33.5152 28.4029C33.7729 28.7075 33.9018 29.1059 33.9018 29.598C33.9018 31.215 33.0347 31.9649 31.3006 31.8477L30.0703 31.7423C28.6877 31.6251 27.305 31.5314 25.9224 31.4611C24.5632 31.3908 23.1337 31.3556 21.6339 31.3556H20.0521C19.7709 34.8239 19.478 37.9875 19.1733 40.8465L25.2194 40.7411C26.0865 40.7411 26.6606 40.8934 26.9418 41.198C27.2465 41.5027 27.3988 41.9128 27.3988 42.4283C27.3988 43.2251 27.1644 43.8578 26.6958 44.3265C26.2271 44.7718 25.5592 44.9944 24.6921 44.9944H18.6812L18.4703 46.5059C17.9782 50.3726 16.9236 53.1261 15.3067 54.7665C13.7131 56.4069 11.5103 57.2271 8.69818 57.2271C7.10465 57.2271 5.64 56.8873 4.30424 56.2077C2.96848 55.5047 1.98424 54.6611 1.35152 53.6768C1.09374 53.2784 0.964848 52.798 0.964848 52.2356C0.964848 51.6732 1.09374 51.1811 1.35152 50.7593C1.63273 50.3374 1.97253 50.1265 2.37091 50.1265C2.65212 50.1265 2.92162 50.2203 3.17939 50.4077C3.46061 50.5952 3.81212 50.9584 4.23394 51.4974C5.35879 52.9738 6.75313 53.712 8.41697 53.712C9.75273 53.712 10.8659 53.173 11.7564 52.095C12.6703 50.9936 13.2562 49.2712 13.5139 46.9277L13.7248 44.9944H12.0376C11.4986 44.9944 11.0299 44.8421 10.6315 44.5374C10.2566 44.2328 10.0691 43.7993 10.0691 43.2368C10.0691 42.5104 10.2566 41.9597 10.6315 41.5847C11.0065 41.1863 11.5572 40.9871 12.2836 40.9871C12.9398 40.9871 13.5842 40.9754 14.217 40.952C14.4982 38.3742 14.8028 35.2457 15.1309 31.5665C12.6 31.8009 10.819 32.211 9.78788 32.7968C8.75677 33.3827 8.24121 34.2498 8.24121 35.398C8.24121 36.1948 8.47556 36.9564 8.94424 37.6829C9.08485 37.8938 9.15515 38.1047 9.15515 38.3156C9.15515 38.7374 8.92081 39.1124 8.45212 39.4405C7.98343 39.7451 7.45616 39.8974 6.8703 39.8974C6.23758 39.8974 5.69859 39.71 5.25333 39.335C4.97212 39.1007 4.70263 38.6203 4.44485 37.8938C4.18707 37.1673 4.05818 36.3589 4.05818 35.4683C4.05818 32.5625 5.54626 30.4534 8.52242 29.1411C11.522 27.8288 15.8925 27.1726 21.6339 27.1726C25.6178 27.1726 29.1329 27.3835 32.1794 27.8053ZM32.317 38.2453C31.3327 38.2453 30.5946 38.0227 30.1024 37.5774C29.6103 37.1088 29.3643 36.4643 29.3643 35.6441C29.3643 34.8239 29.6806 34.1443 30.3133 33.6053C30.9695 33.0429 31.778 32.7617 32.7388 32.7617C33.6059 32.7617 34.3089 32.9726 34.8479 33.3944C35.3869 33.8162 35.6564 34.4138 35.6564 35.1871C35.6564 36.1245 35.3517 36.8744 34.7424 37.4368C34.1331 37.9758 33.3247 38.2453 32.317 38.2453ZM32.0358 57.1217C30.5125 57.1217 29.3994 56.5827 28.6964 55.5047C28.0168 54.4267 27.677 52.9972 27.677 51.2162C27.677 50.1617 27.8059 48.8142 28.0636 47.1738C28.3449 45.51 28.6964 43.9633 29.1182 42.5338C29.3291 41.7839 29.6103 41.2683 29.9618 40.9871C30.3133 40.7059 30.8758 40.5653 31.6491 40.5653C32.8443 40.5653 33.4418 40.9637 33.4418 41.7605C33.4418 42.3463 33.2192 43.7055 32.7739 45.838C32.2115 48.4158 31.9303 50.1617 31.9303 51.0756C31.9303 51.7787 32.024 52.3176 32.2115 52.6926C32.399 53.0675 32.7154 53.255 33.1606 53.255C33.5824 53.255 34.1097 52.9621 34.7424 52.3762C35.3752 51.7904 36.2188 50.8647 37.2733 49.5993C37.5546 49.2712 37.8709 49.1071 38.2224 49.1071C38.5271 49.1071 38.7614 49.2477 38.9255 49.529C39.1129 49.8102 39.2067 50.1968 39.2067 50.689C39.2067 51.6263 38.984 52.3528 38.5388 52.8683C36.2188 55.7039 34.0511 57.1217 32.0358 57.1217ZM38.8585 57.1217C37.9679 57.1217 37.3352 56.653 36.9603 55.7156C36.6088 54.7782 36.433 53.2784 36.433 51.2162C36.433 48.1698 36.8665 45.2756 37.7336 42.5338C37.9445 41.8542 38.2843 41.3621 38.753 41.0574C39.2451 40.7294 39.9247 40.5653 40.7918 40.5653C41.2605 40.5653 41.5886 40.6239 41.776 40.7411C41.9635 40.8582 42.0572 41.0809 42.0572 41.409C42.0572 41.7839 41.8815 42.6275 41.53 43.9399C41.2956 44.8772 41.1081 45.6974 40.9675 46.4005C40.8269 47.1035 40.7098 47.9706 40.616 49.0017C41.3894 46.9863 42.2564 45.3459 43.2172 44.0805C44.178 42.815 45.1154 41.9128 46.0294 41.3738C46.9667 40.8348 47.8221 40.5653 48.5954 40.5653C50.1187 40.5653 50.8803 41.3269 50.8803 42.8502C50.8803 43.7641 50.6225 45.4162 50.1069 47.8065C49.6617 49.8453 49.4391 51.1928 49.4391 51.849C49.4391 52.7863 49.7789 53.255 50.4585 53.255C50.9271 53.255 51.4778 52.9738 52.1106 52.4114C52.7667 51.8255 53.6338 50.8881 54.7118 49.5993C54.993 49.2712 55.3094 49.1071 55.6609 49.1071C55.9655 49.1071 56.1999 49.2477 56.3639 49.529C56.5514 49.8102 56.6451 50.1968 56.6451 50.689C56.6451 51.6263 56.4225 52.3528 55.9772 52.8683C54.9696 54.1104 53.8799 55.1298 52.7081 55.9265C51.5599 56.7233 50.2475 57.1217 48.7712 57.1217C47.576 57.1217 46.6738 56.7819 46.0645 56.1023C45.4552 55.3993 45.1506 54.3916 45.1506 53.0793C45.1506 52.4231 45.3146 51.2514 45.6427 49.5641C45.9473 48.0877 46.0997 47.0683 46.0997 46.5059C46.0997 46.131 45.9708 45.9435 45.713 45.9435C45.4084 45.9435 44.9748 46.3419 44.4124 47.1387C43.8734 47.912 43.311 48.9431 42.7251 50.232C42.1627 51.5209 41.7057 52.8801 41.3542 54.3096C41.0964 55.411 40.7918 56.1609 40.4403 56.5593C40.1122 56.9342 39.5849 57.1217 38.8585 57.1217ZM66.5963 49.1071C66.8541 51.0288 67.229 52.9269 67.7211 54.8017C67.8149 55.1063 67.8617 55.4227 67.8617 55.7508C67.8617 56.8053 67.2173 57.3326 65.9284 57.3326C65.2019 57.3326 64.6395 57.1334 64.2411 56.735C63.8662 56.3366 63.5147 55.5867 63.1866 54.4853L63.1514 54.3447C62.2609 55.4461 61.4525 56.1843 60.726 56.5593C60.023 56.9342 59.2028 57.1217 58.2654 57.1217C56.8359 57.1217 55.6525 56.5944 54.7151 55.5399C53.8011 54.4619 53.3442 53.0675 53.3442 51.3568C53.3442 49.4821 53.7426 47.7479 54.5393 46.1544C55.3361 44.5609 56.4258 43.2603 57.8084 42.2526C59.191 41.2215 60.7377 40.6005 62.4484 40.3896C62.8937 35.9605 63.7373 32.1055 64.9793 28.8247C66.2448 25.5439 67.9203 23.9035 70.006 23.9035C71.0137 23.9035 71.8456 24.3605 72.5017 25.2744C73.1813 26.1883 73.5211 27.571 73.5211 29.4223C73.5211 32.0001 72.8884 35.0114 71.623 38.4562C70.3575 41.9011 68.6819 45.4514 66.5963 49.1071ZM69.6193 27.3483C68.9397 27.3483 68.2953 29.0825 67.686 32.5508C67.1001 36.0191 66.7017 39.792 66.4908 43.8696C69.0921 38.2453 70.3927 33.6756 70.3927 30.1605C70.3927 29.27 70.3106 28.5787 70.1466 28.0865C70.006 27.5944 69.8302 27.3483 69.6193 27.3483ZM59.4957 53.5714C59.9644 53.5714 60.4096 53.3956 60.8314 53.0441C61.2767 52.6926 61.8391 52.013 62.5187 51.0053C62.2844 49.2946 62.1672 47.5253 62.1672 45.6974C62.1672 44.971 62.1789 44.4085 62.2024 44.0102C60.9135 44.3851 59.8472 45.2405 59.0036 46.5762C58.1599 47.912 57.7381 49.3883 57.7381 51.0053C57.7381 52.716 58.324 53.5714 59.4957 53.5714Z" fill="#6B390A"/>
<defs>
<clipPath id="clip0_54_4523">
<rect width="13.1615" height="13.1351" fill="white" transform="translate(110.679 10.9459)"/>
</clipPath>
</defs>
</svg>
