<svg width="26" height="24" viewBox="0 0 26 24" fill="none" xmlns="http://www.w3.org/2000/svg">
<g id="Icons">
<path id="Vector" d="M22.8055 10.0415H22V10H13V14H18.6515C17.827 16.3285 15.6115 18 13 18C9.6865 18 7 15.3135 7 12C7 8.6865 9.6865 6 13 6C14.5295 6 15.921 6.577 16.9805 7.5195L19.809 4.691C18.023 3.0265 15.634 2 13 2C7.4775 2 3 6.4775 3 12C3 17.5225 7.4775 22 13 22C18.5225 22 23 17.5225 23 12C23 11.3295 22.931 10.675 22.8055 10.0415Z" fill="#FFC107"/>
<path id="Vector_2" d="M4.15302 7.3455L7.43851 9.755C8.32752 7.554 10.4805 6 13 6C14.5295 6 15.921 6.577 16.9805 7.5195L19.809 4.691C18.023 3.0265 15.634 2 13 2C9.15902 2 5.82802 4.1685 4.15302 7.3455Z" fill="#FF3D00"/>
<path id="Vector_3" d="M13 21.9999C15.583 21.9999 17.93 21.0114 19.7045 19.4039L16.6095 16.7849C15.5718 17.574 14.3038 18.0009 13 17.9999C10.399 17.9999 8.19053 16.3414 7.35853 14.0269L4.09753 16.5394C5.75253 19.7779 9.11353 21.9999 13 21.9999Z" fill="#4CAF50"/>
<path id="Vector_4" d="M22.8055 10.0415H22V10H13V14H18.6515C18.2571 15.1082 17.5467 16.0766 16.608 16.7855L16.6095 16.7845L19.7045 19.4035C19.4855 19.6025 23 17 23 12C23 11.3295 22.931 10.675 22.8055 10.0415Z" fill="#1976D2"/>
</g>
</svg>
