<svg width="26" height="24" viewBox="0 0 26 24" fill="none" xmlns="http://www.w3.org/2000/svg">
<g id="Icons">
<path id="Vector" d="M25.0238 9.97081C24.7091 10.8683 24.148 11.8755 23.3227 12.994C22.4968 14.1129 21.3772 15.3857 19.9579 16.8137C18.5361 18.2441 16.7339 19.9489 14.5496 21.9289C14.5494 21.9291 14.5493 21.9292 14.5492 21.9293L13 23.3267L11.4508 21.9293C11.4507 21.9292 11.4506 21.9291 11.4504 21.9289C9.26609 19.9489 7.46387 18.2441 6.04212 16.8137C4.62275 15.3857 3.50312 14.1128 2.67729 12.994L2.67718 12.9938C1.85101 11.8753 1.29012 10.8684 0.976374 9.97119C0.65925 9.06433 0.50084 8.13908 0.5 7.19323C0.500049 5.26784 1.13613 3.68611 2.40212 2.41243C3.66799 1.13887 5.23878 0.5 7.15 0.5C8.20309 0.5 9.20284 0.723541 10.1545 1.1717C11.1069 1.62023 11.9271 2.25139 12.6181 3.06928L13 3.52135L13.3819 3.06928C14.0729 2.25139 14.8931 1.62023 15.8455 1.1717C16.7972 0.723541 17.7969 0.5 18.85 0.5C20.7612 0.5 22.332 1.13887 23.5979 2.41243C24.8639 3.68616 25.5 5.26796 25.5 7.19346C25.5 8.13907 25.3416 9.06411 25.0238 9.97081Z" fill="white" stroke="#6B390A"/>
</g>
</svg>
