<svg width="26" height="24" viewBox="0 0 26 24" fill="none" xmlns="http://www.w3.org/2000/svg">
<g id="Toggle visibility">
<path id="Vector" d="M25.675 21.6741L18.1139 14.6938C19.3324 13.1482 19.9879 11.2854 19.9859 9.37388C19.9859 4.37064 15.5758 0.299988 10.1554 0.299988C4.73506 0.299988 0.325012 4.37064 0.325012 9.37388C0.325012 14.3771 4.73506 18.4478 10.1554 18.4478C12.2264 18.4496 14.2444 17.8446 15.9189 16.7198L23.4813 23.6991L25.675 21.6741ZM10.1554 15.5819C8.82507 15.5821 7.52452 15.218 6.4183 14.5358C5.31207 13.8537 4.44985 12.884 3.94068 11.7495C3.43151 10.615 3.29826 9.36662 3.55777 8.16221C3.81729 6.9578 4.45792 5.85148 5.39864 4.98315C6.33937 4.11483 7.53793 3.5235 8.84276 3.28396C10.1476 3.04441 11.5001 3.16741 12.7292 3.6374C13.9583 4.10738 15.0087 4.90325 15.7478 5.92434C16.4868 6.94543 16.8812 8.14588 16.8811 9.37388C16.879 11.0198 16.1698 12.5977 14.9089 13.7615C13.648 14.9253 11.9386 15.58 10.1554 15.5819Z" fill="#F4CFA4"/>
</g>
</svg>
