<svg width="26" height="24" viewBox="0 0 26 24" fill="none" xmlns="http://www.w3.org/2000/svg">
<g id="Toggle visibility">
<path id="Vector" d="M13 8.5C13.7956 8.5 14.5587 8.81607 15.1213 9.37868C15.6839 9.94129 16 10.7044 16 11.5C16 12.2956 15.6839 13.0587 15.1213 13.6213C14.5587 14.1839 13.7956 14.5 13 14.5C12.2044 14.5 11.4413 14.1839 10.8787 13.6213C10.3161 13.0587 10 12.2956 10 11.5C10 10.7044 10.3161 9.94129 10.8787 9.37868C11.4413 8.81607 12.2044 8.5 13 8.5ZM13 4C18 4 22.27 7.11 24 11.5C22.27 15.89 18 19 13 19C8 19 3.73 15.89 2 11.5C3.73 7.11 8 4 13 4ZM4.18 11.5C4.98825 13.1503 6.24331 14.5407 7.80248 15.5133C9.36165 16.4858 11.1624 17.0013 13 17.0013C14.8376 17.0013 16.6383 16.4858 18.1975 15.5133C19.7567 14.5407 21.0117 13.1503 21.82 11.5C21.0117 9.84969 19.7567 8.45925 18.1975 7.48675C16.6383 6.51424 14.8376 5.99868 13 5.99868C11.1624 5.99868 9.36165 6.51424 7.80248 7.48675C6.24331 8.45925 4.98825 9.84969 4.18 11.5Z" fill="#6B390A"/>
</g>
</svg>
