<svg width="26" height="24" viewBox="0 0 26 24" fill="none" xmlns="http://www.w3.org/2000/svg">
<g id="Icons">
<path d="M10 5.00245C9.73478 5.00245 9.48043 5.10781 9.29289 5.29534C9.10536 5.48288 9 5.73723 9 6.00245C9 6.26767 9.10536 6.52202 9.29289 6.70956C9.48043 6.89709 9.73478 7.00245 10 7.00245C10.2652 7.00245 10.5196 6.89709 10.7071 6.70956C10.8946 6.52202 11 6.26767 11 6.00245C11 5.73723 10.8946 5.48288 10.7071 5.29534C10.5196 5.10781 10.2652 5.00245 10 5.00245ZM7.17 5.00245C7.3766 4.41692 7.75974 3.90988 8.2666 3.55124C8.77346 3.1926 9.37909 3 10 3C10.6209 3 11.2265 3.1926 11.7334 3.55124C12.2403 3.90988 12.6234 4.41692 12.83 5.00245H20C20.2652 5.00245 20.5196 5.10781 20.7071 5.29534C20.8946 5.48288 21 5.73723 21 6.00245C21 6.26767 20.8946 6.52202 20.7071 6.70956C20.5196 6.89709 20.2652 7.00245 20 7.00245H12.83C12.6234 7.58798 12.2403 8.09502 11.7334 8.45366C11.2265 8.81231 10.6209 9.0049 10 9.0049C9.37909 9.0049 8.77346 8.81231 8.2666 8.45366C7.75974 8.09502 7.3766 7.58798 7.17 7.00245H6C5.73478 7.00245 5.48043 6.89709 5.29289 6.70956C5.10536 6.52202 5 6.26767 5 6.00245C5 5.73723 5.10536 5.48288 5.29289 5.29534C5.48043 5.10781 5.73478 5.00245 6 5.00245H7.17ZM16 11.0025C15.7348 11.0025 15.4804 11.1078 15.2929 11.2953C15.1054 11.4829 15 11.7372 15 12.0025C15 12.2677 15.1054 12.522 15.2929 12.7096C15.4804 12.8971 15.7348 13.0025 16 13.0025C16.2652 13.0025 16.5196 12.8971 16.7071 12.7096C16.8946 12.522 17 12.2677 17 12.0025C17 11.7372 16.8946 11.4829 16.7071 11.2953C16.5196 11.1078 16.2652 11.0025 16 11.0025ZM13.17 11.0025C13.3766 10.4169 13.7597 9.90988 14.2666 9.55124C14.7735 9.1926 15.3791 9 16 9C16.6209 9 17.2265 9.1926 17.7334 9.55124C18.2403 9.90988 18.6234 10.4169 18.83 11.0025H20C20.2652 11.0025 20.5196 11.1078 20.7071 11.2953C20.8946 11.4829 21 11.7372 21 12.0025C21 12.2677 20.8946 12.522 20.7071 12.7096C20.5196 12.8971 20.2652 13.0025 20 13.0025H18.83C18.6234 13.588 18.2403 14.095 17.7334 14.4537C17.2265 14.8123 16.6209 15.0049 16 15.0049C15.3791 15.0049 14.7735 14.8123 14.2666 14.4537C13.7597 14.095 13.3766 13.588 13.17 13.0025H6C5.73478 13.0025 5.48043 12.8971 5.29289 12.7096C5.10536 12.522 5 12.2677 5 12.0025C5 11.7372 5.10536 11.4829 5.29289 11.2953C5.48043 11.1078 5.73478 11.0025 6 11.0025H13.17ZM10 17.0025C9.73478 17.0025 9.48043 17.1078 9.29289 17.2953C9.10536 17.4829 9 17.7372 9 18.0025C9 18.2677 9.10536 18.522 9.29289 18.7096C9.48043 18.8971 9.73478 19.0025 10 19.0025C10.2652 19.0025 10.5196 18.8971 10.7071 18.7096C10.8946 18.522 11 18.2677 11 18.0025C11 17.7372 10.8946 17.4829 10.7071 17.2953C10.5196 17.1078 10.2652 17.0025 10 17.0025ZM7.17 17.0025C7.3766 16.4169 7.75974 15.9099 8.2666 15.5512C8.77346 15.1926 9.37909 15 10 15C10.6209 15 11.2265 15.1926 11.7334 15.5512C12.2403 15.9099 12.6234 16.4169 12.83 17.0025H20C20.2652 17.0025 20.5196 17.1078 20.7071 17.2953C20.8946 17.4829 21 17.7372 21 18.0025C21 18.2677 20.8946 18.522 20.7071 18.7096C20.5196 18.8971 20.2652 19.0025 20 19.0025H12.83C12.6234 19.588 12.2403 20.095 11.7334 20.4537C11.2265 20.8123 10.6209 21.0049 10 21.0049C9.37909 21.0049 8.77346 20.8123 8.2666 20.4537C7.75974 20.095 7.3766 19.588 7.17 19.0025H6C5.73478 19.0025 5.48043 18.8971 5.29289 18.7096C5.10536 18.522 5 18.2677 5 18.0025C5 17.7372 5.10536 17.4829 5.29289 17.2953C5.48043 17.1078 5.73478 17.0025 6 17.0025H7.17Z" fill="#222222"/>
</g>
</svg>
