<svg width="26" height="24" viewBox="0 0 26 24" fill="none" xmlns="http://www.w3.org/2000/svg">
<g id="Icons">
<path id="Vector" d="M13 24L11.115 22.2997C8.92667 20.3161 7.1175 18.6049 5.6875 17.1662C4.2575 15.7275 3.12 14.4358 2.275 13.2909C1.43 12.1469 0.8398 11.0954 0.5044 10.1362C0.169 9.17711 0.000866667 8.19618 0 7.19346C0 5.14441 0.6825 3.43324 2.0475 2.05995C3.4125 0.686648 5.11333 0 7.15 0C8.27667 0 9.34917 0.239782 10.3675 0.719346C11.3858 1.19891 12.2633 1.87466 13 2.74659C13.7367 1.87466 14.6142 1.19891 15.6325 0.719346C16.6508 0.239782 17.7233 0 18.85 0C20.8867 0 22.5875 0.686648 23.9525 2.05995C25.3175 3.43324 26 5.14441 26 7.19346C26 8.19618 25.8319 9.17711 25.4956 10.1362C25.1593 11.0954 24.5691 12.1469 23.725 13.2909C22.88 14.4358 21.7425 15.7275 20.3125 17.1662C18.8825 18.6049 17.0733 20.3161 14.885 22.2997L13 24Z" fill="#6B390A"/>
</g>
</svg>
