<svg width="28" height="32" viewBox="0 0 28 32" fill="none" xmlns="http://www.w3.org/2000/svg">
<path d="M14.0032 0C10.4039 0.00378108 6.95325 1.32949 4.40819 3.6863C1.86312 6.0431 0.431512 9.23853 0.427429 12.5716C0.427429 23.3288 12.769 31.4532 13.2951 31.7932C13.5026 31.9278 13.7498 32 14.0032 32C14.2566 32 14.5038 31.9278 14.7113 31.7932C15.2373 31.4532 27.5789 23.3288 27.5789 12.5716C27.5749 9.23853 26.1433 6.0431 23.5982 3.6863C21.0531 1.32949 17.6024 0.00378108 14.0032 0Z" fill="#642B02"/>
<path fill-rule="evenodd" clip-rule="evenodd" d="M5.25922 9.45557C5.61302 14.6836 9.12844 18.7892 13.4129 18.7892C17.6974 18.7892 21.2128 14.6836 21.5666 9.45557H20.5649C20.2161 14.3074 16.9759 17.7892 13.4129 17.7892C9.84995 17.7892 6.60974 14.3074 6.26094 9.45557H5.25922Z" fill="white"/>
<path fill-rule="evenodd" clip-rule="evenodd" d="M5.25934 9.45605C5.61312 14.2819 9.12855 18.0717 13.413 18.0717C17.6976 18.0717 21.213 14.2819 21.5668 9.45605H20.5643C20.2153 13.8396 17.035 17.0717 13.413 17.0717C9.79106 17.0717 6.61075 13.8396 6.26178 9.45605H5.25934Z" fill="white"/>
<path fill-rule="evenodd" clip-rule="evenodd" d="M5.25928 9.45654C5.613 10.4619 9.12846 11.2515 13.413 11.2515C17.6976 11.2515 21.213 10.4619 21.5667 9.45654H19.8284C19.5868 9.54061 19.2996 9.62442 18.9661 9.70438C17.5818 10.0363 15.618 10.2515 13.413 10.2515C11.208 10.2515 9.24423 10.0363 7.85992 9.70438C7.52645 9.62442 7.23918 9.54061 6.99763 9.45654H5.25928ZM6.15452 9.54504C6.15389 9.54496 6.15718 9.54044 6.16628 9.53174C6.1597 9.54077 6.15515 9.54512 6.15452 9.54504ZM20.6597 9.53174C20.6688 9.54044 20.6721 9.54496 20.6715 9.54504C20.6709 9.54512 20.6663 9.54077 20.6597 9.53174Z" fill="white"/>
<path fill-rule="evenodd" clip-rule="evenodd" d="M5.25934 18.4309C5.61316 19.8384 9.12857 20.9438 13.413 20.9438C17.6975 20.9438 21.2129 19.8384 21.5668 18.4309H20.394C20.3749 18.4474 20.3541 18.4647 20.3313 18.4828C20.0425 18.712 19.5628 18.9624 18.8811 19.1912C17.5278 19.6455 15.5946 19.9438 13.413 19.9438C11.2315 19.9438 9.29825 19.6455 7.94503 19.1912C7.26328 18.9624 6.7836 18.712 6.49477 18.4828C6.472 18.4647 6.45116 18.4474 6.4321 18.4309H5.25934Z" fill="white"/>
<path fill-rule="evenodd" clip-rule="evenodd" d="M4.03632 18.4309C4.44327 20.2406 8.48596 21.6617 13.4131 21.6617C18.3401 21.6617 22.3828 20.2406 22.7898 18.4309H21.7137C21.6532 18.5231 21.5607 18.632 21.4203 18.7566C21.0682 19.0691 20.5017 19.3961 19.7159 19.691C18.1516 20.2781 15.9234 20.6617 13.4131 20.6617C10.9027 20.6617 8.67453 20.2781 7.11025 19.691C6.32442 19.3961 5.75793 19.0691 5.40585 18.7566C5.26541 18.632 5.17291 18.5231 5.11242 18.4309H4.03632Z" fill="white"/>
<path fill-rule="evenodd" clip-rule="evenodd" d="M19.9362 14.4807C21.6856 14.7743 23.369 13.9875 23.7786 12.6412C24.1883 11.295 23.1772 9.8725 21.4955 9.35652L21.2038 10.3149C22.5365 10.7427 23.0007 11.7697 22.8054 12.4116C22.61 13.0536 21.6248 13.7386 20.2278 13.5224L19.9362 14.4807Z" fill="white"/>
<path fill-rule="evenodd" clip-rule="evenodd" d="M19.901 14.1487C19.9017 14.1489 19.9025 14.149 19.9032 14.1492C21.1489 14.4431 22.4327 13.781 22.7707 12.6702C23.1087 11.5595 22.3729 10.4209 21.1272 10.127C21.1265 10.1268 21.1257 10.1266 21.125 10.1264L20.8338 11.0831C20.8346 11.0833 20.8353 11.0835 20.8361 11.0837C21.6357 11.2723 21.9486 11.9439 21.7974 12.4406C21.6463 12.9373 20.9939 13.3812 20.1943 13.1925C20.1936 13.1924 20.1928 13.1922 20.1921 13.192L19.901 14.1487Z" fill="white"/>
<path fill-rule="evenodd" clip-rule="evenodd" d="M21.5668 9.45654C21.2131 8.45114 17.6977 7.66158 13.4131 7.66158C9.12856 7.66158 5.6131 8.45114 5.25937 9.45654H6.99773C7.23927 9.37248 7.52655 9.28867 7.86002 9.20871C9.24433 8.87678 11.2081 8.66158 13.4131 8.66158C15.6181 8.66158 17.5819 8.87678 18.9662 9.20871C19.2997 9.28867 19.5869 9.37248 19.8285 9.45654H21.5668ZM20.6716 9.36805C20.6722 9.36813 20.6689 9.37265 20.6598 9.38135C20.6664 9.37232 20.671 9.36796 20.6716 9.36805ZM6.16638 9.38135C6.15728 9.37264 6.15399 9.36813 6.15461 9.36805C6.15524 9.36796 6.1598 9.37232 6.16638 9.38135Z" fill="white"/>
<path d="M21.4161 15.1497C21.5043 15.1501 21.5915 15.1595 21.676 15.1783C21.7599 15.197 21.8372 15.2241 21.9073 15.2586C21.8307 15.4036 21.6351 15.5877 21.4085 15.7448C21.1719 15.9089 20.9005 16.0483 20.7253 16.1112L20.7233 16.1119L20.7213 16.1127C20.5603 16.1743 20.4463 16.2712 20.3805 16.3782C20.3381 16.447 20.3134 16.5191 20.299 16.5925C20.17 16.5175 20.034 16.4575 19.8958 16.414C19.9063 16.2787 19.9462 16.1368 20.0191 15.9947C20.1717 15.6967 20.4384 15.4568 20.7405 15.3105C20.9576 15.2054 21.1905 15.1485 21.4161 15.1497ZM22.1744 15.4623C22.2251 15.5209 22.2667 15.5863 22.2983 15.6573C22.4039 15.8944 22.3954 16.1917 22.2427 16.4897C22.1502 16.67 22.016 16.829 21.8575 16.9589C21.7013 16.9937 21.5469 17.0475 21.4018 17.1204C21.2897 17.1768 21.1898 17.2413 21.1032 17.3115C21.075 17.3166 21.0467 17.321 21.0185 17.3244C20.9647 17.2199 20.8949 17.116 20.8088 17.0151C20.7568 16.954 20.6997 16.8954 20.638 16.8395C20.6373 16.8012 20.6377 16.764 20.6402 16.7285C20.6468 16.6325 20.6675 16.5504 20.7053 16.489C20.7431 16.4275 20.7923 16.3846 20.8845 16.3493L20.8805 16.3508C21.1075 16.2693 21.391 16.1205 21.652 15.9395C21.8594 15.7957 22.0518 15.6346 22.1744 15.4623ZM19.3981 16.4653C19.5321 16.4662 19.6739 16.4893 19.8174 16.5337C20.1234 16.6283 20.4308 16.8201 20.6581 17.0864C20.7743 17.2227 20.8579 17.3648 20.9098 17.5042C20.7059 17.759 20.6558 18.0516 20.8027 18.2974C20.779 18.3227 20.7525 18.3465 20.7235 18.3685C20.5087 18.2305 20.2611 18.1162 20.0852 17.9988C19.989 17.9346 19.9162 17.8711 19.8758 17.8106C19.8353 17.7501 19.8214 17.6946 19.8424 17.619L19.8437 17.6146L19.8445 17.6102C19.9244 17.1794 19.7842 16.9262 19.5799 16.7713C19.4155 16.6468 19.252 16.5812 19.1392 16.4946C19.2207 16.4745 19.3076 16.4648 19.3981 16.4653ZM18.8349 16.6424C19 16.7951 19.2034 16.8657 19.325 16.9578C19.4647 17.0637 19.5611 17.1912 19.4909 17.572C19.4571 17.7014 19.4868 17.8258 19.556 17.9292C19.6264 18.0345 19.7317 18.1201 19.8468 18.1969C20.0216 18.3135 20.2232 18.4134 20.3919 18.5108C20.2006 18.5478 19.9828 18.5299 19.7611 18.4614C19.455 18.3668 19.1477 18.175 18.9204 17.9086C18.6931 17.6422 18.5905 17.3536 18.6055 17.1071C18.617 16.9185 18.6952 16.757 18.8349 16.6424L18.8349 16.6424ZM19.4909 17.572C19.4915 17.5696 19.492 17.5673 19.4926 17.565L19.4905 17.5738C19.4906 17.5732 19.4907 17.5726 19.4909 17.572H19.4909ZM22.2718 17.0441C22.4543 17.0429 22.6261 17.0727 22.7708 17.1314C22.7698 17.1314 22.7689 17.1315 22.7679 17.1315C22.6823 17.1337 22.5748 17.1262 22.451 17.1388C22.3272 17.1514 22.1822 17.1933 22.0723 17.2858C21.9625 17.3784 21.8871 17.5096 21.8347 17.698L21.8334 17.7024L21.8326 17.7069C21.8083 17.8384 21.6958 17.9144 21.5008 17.9856C21.3345 18.0464 21.1209 18.0898 20.9181 18.134C20.8273 17.831 21.0428 17.4614 21.5017 17.2307C21.7492 17.1063 22.0205 17.0458 22.2718 17.0441H22.2718ZM23.0765 17.3504C23.3272 17.6721 23.1261 18.1442 22.5792 18.4191C22.0411 18.6897 21.3904 18.6577 21.0773 18.377C21.2603 18.3382 21.4677 18.2941 21.6582 18.2245C21.9038 18.1348 22.1379 17.984 22.1851 17.7499C22.2301 17.5895 22.2902 17.504 22.34 17.462C22.3901 17.4198 22.4291 17.4096 22.4993 17.4024C22.5696 17.3953 22.6661 17.4004 22.7805 17.3974C22.8696 17.395 22.9742 17.3855 23.0765 17.3504V17.3504ZM22.1851 17.7499C22.1849 17.7506 22.1847 17.7513 22.1845 17.7521L22.1865 17.7432C22.1861 17.7455 22.1856 17.7477 22.1851 17.7499L22.1851 17.7499Z" fill="#FBF6F2"/>
<path d="M5.07302 15.1497C4.99737 15.1501 4.9227 15.1595 4.85021 15.1783C4.7783 15.197 4.71205 15.2241 4.65193 15.2586C4.71762 15.4036 4.8853 15.5877 5.07954 15.7448C5.28235 15.9089 5.5149 16.0483 5.66508 16.1112L5.66684 16.1119L5.66857 16.1127C5.80657 16.1743 5.90428 16.2712 5.96068 16.3782C5.997 16.447 6.01815 16.5191 6.03049 16.5925C6.14107 16.5175 6.25764 16.4575 6.37615 16.414C6.36714 16.2787 6.33287 16.1368 6.27047 15.9947C6.13959 15.6967 5.91099 15.4568 5.6521 15.3105C5.46602 15.2054 5.26634 15.1485 5.07302 15.1497ZM4.42307 15.4623C4.37957 15.5209 4.34391 15.5863 4.31681 15.6573C4.2263 15.8944 4.23364 16.1917 4.36453 16.4897C4.44374 16.67 4.55879 16.829 4.69466 16.9589C4.82851 16.9937 4.96091 17.0475 5.08527 17.1204C5.18136 17.1768 5.26698 17.2413 5.34118 17.3115C5.3654 17.3166 5.38963 17.321 5.41383 17.3244C5.45993 17.2199 5.51977 17.116 5.59352 17.0151C5.63814 16.954 5.68703 16.8954 5.73991 16.8395C5.74052 16.8012 5.74017 16.764 5.73806 16.7285C5.73237 16.6325 5.71467 16.5504 5.68226 16.489C5.64987 16.4275 5.60766 16.3846 5.52864 16.3493L5.53213 16.3508C5.33752 16.2693 5.0945 16.1205 4.87084 15.9395C4.69306 15.7957 4.52814 15.6346 4.42307 15.4623ZM6.80274 16.4653C6.68784 16.4662 6.56629 16.4893 6.44333 16.5337C6.18099 16.6283 5.91758 16.8201 5.72275 17.0864C5.62308 17.2227 5.55146 17.3648 5.50693 17.5042C5.68174 17.759 5.72467 18.0516 5.59874 18.2974C5.61909 18.3227 5.64181 18.3465 5.66667 18.3685C5.85078 18.2305 6.06297 18.1162 6.21377 17.9988C6.29619 17.9346 6.3586 17.8711 6.39328 17.8106C6.42796 17.7501 6.4399 17.6946 6.42187 17.619L6.42081 17.6146L6.42011 17.6102C6.35161 17.1794 6.47179 16.9262 6.64693 16.7713C6.78776 16.6468 6.92794 16.5812 7.02465 16.4946C6.95478 16.4745 6.88028 16.4648 6.80274 16.4653ZM7.28544 16.6424C7.14398 16.7951 6.96957 16.8657 6.86537 16.9578C6.74563 17.0637 6.66298 17.1912 6.72319 17.572C6.75218 17.7014 6.7267 17.8258 6.6674 17.9292C6.60703 18.0345 6.51675 18.1201 6.41812 18.1969C6.2683 18.3135 6.09548 18.4134 5.9509 18.5108C6.11486 18.5478 6.30153 18.5299 6.49161 18.4614C6.75395 18.3668 7.01737 18.175 7.21218 17.9086C7.40702 17.6422 7.49493 17.3536 7.48207 17.1071C7.47224 16.9185 7.40522 16.757 7.28545 16.6424L7.28544 16.6424ZM6.72319 17.572C6.72268 17.5696 6.72227 17.5673 6.72171 17.565L6.72348 17.5738C6.72339 17.5732 6.7233 17.5726 6.72319 17.572H6.72319ZM4.33951 17.0441C4.18314 17.0429 4.03583 17.0727 3.91185 17.1314C3.9127 17.1314 3.91344 17.1315 3.91429 17.1315C3.9877 17.1337 4.07986 17.1262 4.18597 17.1388C4.29207 17.1514 4.41636 17.1933 4.51052 17.2858C4.60469 17.3784 4.66925 17.5096 4.71422 17.698L4.71529 17.7024L4.71598 17.7069C4.73685 17.8384 4.83325 17.9144 5.00038 17.9856C5.14299 18.0464 5.32607 18.0898 5.49985 18.134C5.57769 17.831 5.39301 17.4614 4.99959 17.2307C4.78746 17.1063 4.55493 17.0458 4.33953 17.0441H4.33951ZM3.64983 17.3504C3.43487 17.6721 3.60726 18.1442 4.07605 18.4191C4.53731 18.6897 5.09499 18.6577 5.3634 18.377C5.20658 18.3382 5.0288 18.2941 4.86552 18.2245C4.65499 18.1348 4.45433 17.984 4.41384 17.7499C4.37528 17.5895 4.32375 17.504 4.28105 17.462C4.23818 17.4198 4.20475 17.4096 4.14453 17.4024C4.0843 17.3953 4.00153 17.4004 3.90352 17.3974C3.82713 17.395 3.73751 17.3855 3.64983 17.3504V17.3504ZM4.41385 17.7499C4.41403 17.7506 4.41422 17.7513 4.4144 17.7521L4.41264 17.7432C4.413 17.7455 4.41346 17.7477 4.41385 17.7499L4.41385 17.7499Z" fill="#FBF6F2"/>
</svg>
